<svg xmlns="http://www.w3.org/2000/svg" viewBox="0 0 200 60" fill="none">
  <defs>
    <linearGradient id="accent" x1="0%" y1="0%" x2="100%" y2="100%">
      <stop offset="0%" style="stop-color:#818cf8"/>
      <stop offset="100%" style="stop-color:#6366f1"/>
    </linearGradient>
  </defs>
  <!-- Mill gear icon -->
  <g transform="translate(10, 10)">
    <circle cx="20" cy="20" r="8" fill="url(#accent)"/>
    <circle cx="20" cy="20" r="4" fill="#1f2937"/>
    <!-- Gear teeth -->
    <rect x="17" y="2" width="6" height="8" rx="1" fill="url(#accent)"/>
    <rect x="17" y="30" width="6" height="8" rx="1" fill="url(#accent)"/>
    <rect x="2" y="17" width="8" height="6" rx="1" fill="url(#accent)"/>
    <rect x="30" y="17" width="8" height="6" rx="1" fill="url(#accent)"/>
    <!-- Diagonal teeth -->
    <rect x="6" y="6" width="6" height="6" rx="1" fill="url(#accent)" transform="rotate(45 9 9)"/>
    <rect x="28" y="6" width="6" height="6" rx="1" fill="url(#accent)" transform="rotate(45 31 9)"/>
    <rect x="6" y="28" width="6" height="6" rx="1" fill="url(#accent)" transform="rotate(45 9 31)"/>
    <rect x="28" y="28" width="6" height="6" rx="1" fill="url(#accent)" transform="rotate(45 31 31)"/>
  </g>
  <!-- Text -->
  <text x="58" y="38" font-family="system-ui, -apple-system, sans-serif" font-size="28" font-weight="600" fill="#f9fafb">Prompt</text>
  <text x="145" y="38" font-family="system-ui, -apple-system, sans-serif" font-size="28" font-weight="600" fill="url(#accent)">Mill</text>
</svg>
